<!-- <svg width="131" height="39" viewBox="0 0 131 39" fill="none" xmlns="http://www.w3.org/2000/svg">
<path fill-rule="evenodd" clip-rule="evenodd" d="M17 39C26.3888 39 34 31.3888 34 22C34 12.6112 26.3888 5 17 5C7.61114 5 0 12.6112 0 22C0 31.3888 7.61114 39 17 39ZM22.3034 12.9193C22.5616 12.0023 21.6717 11.4601 20.859 12.0391L9.51415 20.1211C8.63278 20.749 8.77142 22 9.7224 22H12.7098V21.9768H18.5321L13.788 23.6508L11.6966 31.0807C11.4385 31.9977 12.3282 32.5399 13.141 31.9609L24.4859 23.8789C25.3672 23.251 25.2285 22 24.2776 22H19.7473L22.3034 12.9193Z" fill="#2563EB"/>
</svg> -->


    <!-- <svg width="131" height="39" viewBox="0 0 131 39" fill="none" xmlns="http://www.w3.org/2000/svg" aria-label="Logo">
      <path fillRule="evenodd" clipRule="evenodd" d="M17 39C26.3888 39 34 31.3888 34 22C34 12.6112 26.3888 5 17 5C7.61114 5 0 12.6112 0 22C0 31.3888 7.61114 39 17 39ZM22.3034 12.9193C22.5616 12.0023 21.6717 11.4601 20.859 12.0391L9.51415 20.1211C8.63278 20.749 8.77142 22 9.7224 22H12.7098V21.9768H18.5321L13.788 23.6508L11.6966 31.0807C11.4385 31.9977 12.3282 32.5399 13.141 31.9609L24.4859 23.8789C25.3672 23.251 25.2285 22 24.2776 22H19.7473L22.3034 12.9193Z" fill="#2563EB"/>
    </svg> -->

    <svg width="34" height="34" viewBox="0 0 34 34" fill="none" xmlns="http://www.w3.org/2000/svg">
<path fill-rule="evenodd" clip-rule="evenodd" d="M17 34C26.3888 34 34 26.3888 34 17C34 7.61116 26.3888 0 17 0C7.61114 0 0 7.61116 0 17C0 26.3888 7.61114 34 17 34ZM22.3034 7.91931C22.5616 7.00234 21.6717 6.46011 20.859 7.0391L9.51415 15.1211C8.63278 15.749 8.77142 17 9.7224 17H12.7098V16.9768H18.5321L13.788 18.6508L11.6966 26.0807C11.4385 26.9977 12.3282 27.5399 13.141 26.9609L24.4859 18.8789C25.3672 18.251 25.2285 17 24.2776 17H19.7473L22.3034 7.91931Z" fill="#2563EB"/>
</svg>

